<?xml version="1.0" encoding="UTF-8"?> <svg xmlns="http://www.w3.org/2000/svg" width="85" height="85" viewBox="0 0 85 85" fill="none"> <path d="M19.72 0H65.62C76.16 0 85 9.18 85 20.4V64.6C85 75.82 76.16 85 65.28 85H19.72C8.84 85 0 75.82 0 64.6V20.4C0 9.18 8.84 0 19.72 0Z" fill="#5460A1"></path> <path fill-rule="evenodd" clip-rule="evenodd" d="M59.1592 25.5C54.7392 21.08 48.9592 18.7 42.4992 18.7C29.5792 18.7 19.0392 29.2399 19.0392 42.1599C19.0392 46.2399 20.0592 50.3199 22.0992 54.0599L18.6992 66.2999L31.2792 62.8999C34.6792 64.9399 38.4192 65.6199 42.4992 65.6199C55.4192 65.6199 65.9592 55.0799 65.9592 42.1599C66.2992 36.0399 63.5792 29.92 59.1592 25.5ZM42.4992 61.88C39.0992 61.88 35.6992 60.8599 32.6392 59.1599L31.9592 58.8199L24.4792 60.8599L26.5192 53.72L26.1792 53.04C24.1392 49.98 23.1192 46.24 23.1192 42.5C23.1192 31.62 31.9592 22.78 42.8392 22.78C47.9392 22.78 53.0392 24.8199 56.7792 28.5599C60.5192 32.2999 62.5592 37.06 62.5592 42.5C62.2192 53.0399 53.3792 61.88 42.4992 61.88ZM53.3792 47.2599C52.6992 46.9199 49.9792 45.56 49.2992 45.22C48.6192 44.88 48.2792 44.8799 47.9392 45.5599C47.5992 46.2399 46.5792 47.6 45.8992 47.94C45.5592 48.28 45.2192 48.28 44.5392 47.94C43.8592 47.6 42.1592 46.9199 39.7792 44.8799C38.0792 43.1799 36.7192 41.48 36.3792 40.8C36.0392 40.12 36.3792 39.78 36.7192 39.44C37.0592 39.1 37.3992 38.76 37.7392 38.42C38.0792 38.08 38.0792 37.74 38.4192 37.4C38.7592 37.06 38.4192 36.7199 38.4192 36.3799C38.4192 36.0399 37.0592 33.3199 36.7192 31.9599C36.3792 30.9399 35.6992 30.94 35.3592 30.94C35.0192 30.94 34.6792 30.94 34.3392 30.94C33.9992 30.94 33.3192 30.94 32.6392 31.62C31.9592 32.64 30.5992 33.9999 30.5992 37.0599C30.5992 40.1199 32.6392 42.8399 32.9792 43.1799C33.3192 43.5199 37.0592 49.64 43.1792 52.02C44.5392 52.7 45.5592 53.0399 46.5792 53.3799C47.9392 53.7199 49.2992 53.72 50.3192 53.72C51.3392 53.72 53.7192 52.3599 54.3992 50.9999C54.7392 49.6399 54.7392 48.2799 54.7392 48.2799C54.3992 47.5999 54.0592 47.5999 53.3792 47.2599Z" fill="white"></path> </svg> 