<?xml version="1.0" encoding="UTF-8"?> <svg xmlns="http://www.w3.org/2000/svg" width="301" height="179" viewBox="0 0 301 179" fill="none"> <g clip-path="url(#clip0_3984_719)"> <path fill-rule="evenodd" clip-rule="evenodd" d="M48 21.8852C45.12 23.3692 41 30.8852 41 34.6562C41 36.0672 40.073 38.0152 38.94 38.9862C35.826 41.6512 36.637 46.6632 40.5 48.6352C42.15 49.4772 43.725 50.3172 44 50.5012C44.687 50.9622 39.95 54.7992 36.137 56.8692C33.294 58.4132 33 59.0232 32.999 63.3692C32.998 66.0082 33.758 73.5662 34.688 80.1662C36.369 92.0942 36.409 92.2042 41.383 98.5462C44.135 102.055 48.088 108.13 50.167 112.046C52.246 115.962 53.959 118.439 53.974 117.55C54.015 115.042 47.496 102.746 43.016 96.8822C39.161 91.8362 38.871 90.9372 36.584 76.9672C35.267 68.9212 34.416 61.7472 34.692 61.0252C34.969 60.3032 37.299 58.2022 39.87 56.3552C44.239 53.2162 44.72 52.4102 47.233 44.0162C48.711 39.0772 50.826 33.8852 51.933 32.4782C54.219 29.5722 60.523 26.2532 62.011 27.1732C63.701 28.2172 63.012 34.9132 60.623 40.6662C58.796 45.0652 57.895 46.1492 56.12 46.0812C54.18 46.0072 54.084 46.1792 55.355 47.4502C56.154 48.2492 57.308 48.5942 57.918 48.2162C60.273 46.7612 63.287 38.9552 63.758 33.0922C64.245 27.0252 64.212 26.9302 60.718 24.2652C56.513 21.0572 51.447 20.1092 48 21.8852ZM51.26 51.6662C51.437 53.5112 52.155 54.2392 54 54.4462C55.375 54.6002 57.471 54.9362 58.658 55.1922C60.485 55.5862 70.084 62.3542 78.855 69.4332L81.21 71.3332L78.985 75.7502C77.76 78.1792 75.211 82.0752 73.319 84.4082C71.428 86.7412 70.579 88.3812 71.434 88.0532C73.557 87.2382 81.87 76.0332 82.646 72.9382C83.35 70.1362 82.7 69.5042 68.733 59.4162C62.271 54.7492 60.034 53.6662 56.854 53.6662C53.741 53.6662 52.739 53.2042 51.978 51.4162C51.034 49.1992 51.023 49.2022 51.26 51.6662ZM58 60.0372C58 60.3462 58.723 62.1132 59.606 63.9652C61.179 67.2642 61.147 67.4322 58.044 72.2492C56.11 75.2512 55.146 76.1922 55.569 74.6662C55.951 73.2912 57.151 70.9042 58.238 69.3622C60.127 66.6802 60.136 66.4742 58.451 64.6122C57.483 63.5422 55.612 62.6662 54.295 62.6662C49.518 62.6662 42.99 67.6612 41.546 72.4222C40.552 75.6992 43.3 84.1222 49.455 96.6642C56.947 111.928 59.45 123.047 58.76 137.982C58.393 145.904 58.531 148.437 59.231 146.666C63.103 136.877 67.264 123.093 68.518 115.903C70.208 106.213 69.596 102.329 65.394 96.0532L62.791 92.1662L66.415 95.6312C70.616 99.6482 72.298 104.752 71.43 110.854C70.354 118.422 66.191 132.804 61.523 145.079C59.031 151.631 57.152 157.151 57.346 157.346C57.947 157.947 67.628 134.564 70.479 125.625C73.968 114.686 74.883 103.275 72.623 98.9042C71.723 97.1642 67.84 93.2302 63.994 90.1612C57.927 85.3202 57 84.1522 57 81.3462C57 78.0102 58.551 75.0762 62.698 70.5642L65.09 67.9632L61.545 63.7202C59.595 61.3862 58 59.7292 58 60.0372ZM101.946 66.3622C91.234 71.6662 81.781 84.3472 78.881 97.3072C77.921 101.598 77.892 104.409 78.758 109.465C82.105 129.004 101.666 135.504 119.997 123.168C122.859 121.242 125.771 119.666 126.469 119.666C127.166 119.666 129.468 116.706 131.583 113.088C135.258 106.805 141.871 99.6662 144.016 99.6662C144.593 99.6662 144.343 101.275 143.432 103.416C139.491 112.686 138.862 114.657 139.171 116.764C139.535 119.245 142 120.676 142 118.406C142 117.622 144.204 113.841 146.899 110.004C154.653 98.9632 161.463 95.8832 155.929 105.92C152.693 111.789 152.199 116.722 154.605 119.129C156.767 121.29 159.743 120.305 163.75 116.103C166.808 112.897 167 112.831 167 114.981C167 120.916 172.82 121.277 178.001 115.664L181.696 111.663L181.781 114.651C181.827 116.295 182.147 118.095 182.492 118.653C183.544 120.356 188.586 119.781 190.426 117.747C192.138 115.856 192.19 115.856 194.081 117.747C196.266 119.932 200.855 120.268 203.2 118.416C205.466 116.626 209.145 110.23 212.421 102.384C213.978 98.6532 216.096 95.1502 217.126 94.5982C219.564 93.2942 219.527 93.5362 216.046 101.718C214.421 105.536 212.805 110.189 212.454 112.058C211.163 118.943 215.904 121.889 221.365 117.593C222.814 116.454 224 115.993 224 116.57C224 117.148 225.167 118.385 226.594 119.32C229.042 120.923 229.374 120.919 232.475 119.249C234.283 118.276 236.342 116.396 237.05 115.073C237.979 113.337 239.197 112.662 241.419 112.651C244.811 112.634 247.839 111.171 246.745 110.078C246.362 109.695 245.384 109.932 244.572 110.606C242.385 112.421 239 110.972 239 108.221C239 106.95 238.302 105.332 237.45 104.624C236.174 103.565 235.626 103.611 234.351 104.886C232.953 106.284 232.972 106.693 234.546 109.096C236.062 111.409 236.112 112.087 234.934 114.289C233.225 117.483 230.172 119.238 228.767 117.833C226.992 116.058 228.881 110.183 233.926 101.788C238.606 94.0032 238.711 93.6662 236.472 93.6662C233.721 93.6662 231.696 96.2872 226.6 106.441C222.691 114.232 219.907 117.666 217.5 117.666C214.935 117.666 215.762 112.05 219.529 103.897C221.47 99.6972 223.789 95.4512 224.684 94.4632C226.226 92.7592 226.079 92.6662 221.846 92.6662C219.391 92.6662 216.637 93.2292 215.726 93.9162C214.815 94.6042 212.442 98.7662 210.453 103.166C205.861 113.324 202.603 117.666 199.572 117.666C196.574 117.666 194.93 115.649 195.658 112.864C196.54 109.494 193.841 110.199 191.484 113.955C190.376 115.721 188.463 117.31 187.234 117.486C185.403 117.747 185 117.326 185 115.153C185 112.168 190.214 99.6492 193.254 95.3382L195.248 92.5092L192.374 92.8382C189.887 93.1222 188.875 94.3462 184.857 101.931C182.303 106.752 179.018 112.265 177.556 114.181C174.366 118.364 171 118.879 171 115.184C171 112.372 178.146 96.3122 179.871 95.2452C181.973 93.9472 181.015 92.5312 178.25 92.8502C175.884 93.1222 174.769 94.5582 170.263 103.134C164.719 113.685 160.039 119.426 158.005 118.169C156.22 117.066 157.454 112.439 162.091 102.859C164.322 98.2512 165.991 94.3232 165.799 94.1322C164.826 93.1592 156.417 98.1322 151.914 102.343L146.792 107.134L149.602 101.406C151.768 96.9892 152.14 95.4062 151.226 94.4922C149.555 92.8212 145.996 94.9022 139.365 101.428C136.414 104.332 134 106.351 134 105.914C134 105.478 135.575 102.729 137.5 99.8062C139.425 96.8832 141 94.2762 141 94.0122C141 93.7492 139.766 93.6762 138.257 93.8502C135.84 94.1282 134.837 95.5452 129.808 105.785C124.525 116.543 123.692 117.676 118.553 121.087C104.21 130.607 90.501 127.078 86.349 112.796C84.97 108.051 84.893 106.046 85.854 99.8682C87.974 86.2332 96.95 71.2902 105.441 67.2612C107.29 66.3842 110.917 65.6662 113.501 65.6662C117.49 65.6662 118.702 66.1682 121.521 68.9872C125.832 73.2982 126.814 78.2462 124.541 84.1982C122.487 89.5752 118.837 92.6662 114.539 92.6662C107.355 92.6662 103.826 82.6742 109.047 77.1152C112.155 73.8072 109.961 73.9772 106.636 77.3022C102.775 81.1642 102.905 87.7252 106.923 91.7432C114.611 99.4302 129.385 91.6072 129.385 79.8492C129.385 66.5112 115.465 59.6702 101.946 66.3622ZM38.42 72.8132C38.648 75.9182 39.766 80.4182 40.905 82.8132C42.043 85.2072 42.672 86.0412 42.301 84.6662C41.931 83.2912 40.813 78.7912 39.817 74.6662L38.006 67.1662L38.42 72.8132ZM143.208 86.7492C139.468 89.2102 139.699 90.7002 143.505 88.6632C145.513 87.5892 147.01 87.5562 151.08 88.4952C157.962 90.0842 162.126 89.9672 164.777 88.1092C167.642 86.1032 167.731 84.2042 164.889 85.7252C163.728 86.3472 161.141 86.6222 159.139 86.3372C146.389 84.5232 146.597 84.5182 143.208 86.7492ZM245.095 93.5722C241.831 95.6722 244.415 104.239 252.175 117.038C261.128 131.805 262.846 139.861 258.71 147.681C253.558 157.424 238.254 159.533 228.967 151.78L225.764 149.106L231.417 145.352C234.526 143.288 237.953 140.152 239.031 138.382C244.476 129.452 237.665 120.272 228.451 124.122C226.419 124.971 223.911 125.666 222.878 125.666C221.845 125.666 221 126.102 221 126.635C221 127.167 221.736 127.321 222.636 126.975C223.76 126.544 224.128 126.789 223.809 127.757C223.282 129.359 218 130.322 218 128.816C218 128.275 218.563 127.57 219.25 127.248C220.992 126.433 209.269 127.015 158 130.288C133.525 131.85 114.265 133.278 115.2 133.461C116.135 133.644 137.735 133.089 163.2 132.227C188.665 131.365 212.425 130.662 216 130.663L222.5 130.666V137.416C222.5 141.129 222.855 145.139 223.289 146.328C224.01 148.3 223.38 148.76 216.123 151.558C188.69 162.138 152.872 159.161 104.716 142.302C85.913 135.718 83.881 135.33 78.829 137.351C72.918 139.716 71.476 143.561 74.91 147.805C76.595 149.889 77.885 150.225 85.911 150.666C90.912 150.941 95.002 150.828 95.001 150.416C95 149.468 93.055 149.308 85.304 149.617C79.818 149.836 78.815 149.572 76.554 147.311C73.52 144.277 73.44 143.579 75.789 140.678C76.997 139.186 79.072 138.299 82.172 137.95C86.013 137.517 89.935 138.511 106.132 144.019C140.028 155.548 156.613 158.947 179 158.955C195.231 158.961 204.565 157.39 217.198 152.525L224.895 149.561L227.036 151.702C234.511 159.177 249.187 159.505 256.831 152.368C264.867 144.866 263.722 133.591 253.154 116.166C250.212 111.315 249.111 108.552 249.568 107.166C251.403 101.598 251.18 97.9872 248.84 95.3272C247.186 93.4482 246.088 92.9332 245.095 93.5722ZM248.932 97.8662C250.038 99.8282 250.126 101.174 249.318 103.786L248.273 107.166L246.636 103.448C243.478 96.2722 245.399 91.6012 248.932 97.8662ZM237.686 126.84C242.35 131.222 239.57 138.202 230.802 144.124L225.5 147.705L224.295 144.935C222.993 141.944 222.677 136.47 223.606 133.007C224.043 131.379 225.309 130.642 228.761 130.007C234.155 129.015 235.218 127.274 231.3 125.845L228.5 124.824L231.936 124.745C234.168 124.694 236.181 125.427 237.686 126.84ZM230 127.666C230 128.216 228.848 128.666 227.441 128.666C225.99 128.666 225.149 128.233 225.5 127.666C225.84 127.116 226.991 126.666 228.059 126.666C229.127 126.666 230 127.116 230 127.666ZM298.645 251.974C297.884 253.793 295.291 256.935 292.881 258.954L288.5 262.627L294.75 262.646L301 262.666V255.666C301 251.816 300.781 248.666 300.513 248.666C300.246 248.666 299.405 250.155 298.645 251.974ZM-19 261.666C-19 262.216 -18.523 262.666 -17.941 262.666C-17.359 262.666 -17.16 262.216 -17.5 261.666C-17.84 261.116 -18.316 260.666 -18.559 260.666C-18.802 260.666 -19 261.116 -19 261.666Z" fill="black"></path> </g> <defs> <clipPath id="clip0_3984_719"> <rect width="301" height="179" fill="white"></rect> </clipPath> </defs> </svg> 