<?xml version="1.0" encoding="UTF-8"?> <svg xmlns="http://www.w3.org/2000/svg" width="85" height="85" viewBox="0 0 85 85" fill="none"> <path d="M19.72 0H65.62C76.16 0 85 9.18 85 20.4V64.6C85 75.82 76.16 85 65.28 85H19.72C8.84 85 0 75.82 0 64.6V20.4C0 9.18 8.84 0 19.72 0Z" fill="#5460A1"></path> <path d="M18.02 41.4799L29.92 45.8999L34.34 60.5199C34.68 61.5399 35.7 61.8799 36.38 61.1999L42.84 55.7599C43.52 55.0799 44.54 55.0799 45.22 55.7599L57.12 64.2599C57.8 64.9399 59.16 64.2599 59.16 63.5799L68 22.0999C68.34 21.0799 67.32 20.0599 66.3 20.3999L18.02 39.0999C16.66 39.4399 16.66 41.1399 18.02 41.4799ZM33.32 43.5199L56.44 29.2399C56.78 28.8999 57.12 29.5799 57.12 29.9199L38.08 47.5999C37.4 48.2799 37.06 48.9599 36.72 49.9799L36.04 54.7399C36.04 55.4199 35.02 55.4199 35.02 54.7399L32.64 45.8999C32.3 45.2199 32.64 44.1999 33.32 43.5199Z" fill="white"></path> </svg> 